<?xml version="1.0" encoding="utf-8"?>
<svg viewBox="0 0 500 500" xmlns="http://www.w3.org/2000/svg" xmlns:xlink="http://www.w3.org/1999/xlink">
  <defs>
    <symbol id="u" overflow="visible"/>
    <symbol id="d" overflow="visible">
      <path d="m15.25-12.375c-0.48047-0.22656-0.95312-0.39453-1.4219-0.5-0.46875-0.10156-0.94531-0.15625-1.4219-0.15625-1.3984 0-2.4766 0.44922-3.2344 1.3438-0.75 0.89844-1.125 2.1797-1.125 3.8438v7.8438h-5.4375v-17.016h5.4375v2.7969c0.69531-1.1133 1.5-1.9258 2.4062-2.4375 0.90625-0.50781 1.9922-0.76562 3.2656-0.76562 0.17578 0 0.36719 0.011719 0.57812 0.03125 0.21875 0.011719 0.53125 0.042969 0.9375 0.09375z"/>
    </symbol>
    <symbol id="c" overflow="visible">
      <path d="m19.594-8.5469v1.5469h-12.719c0.13281 1.2734 0.59766 2.2305 1.3906 2.875 0.78906 0.63672 1.8945 0.95312 3.3125 0.95312 1.1445 0 2.3164-0.16406 3.5156-0.5 1.1953-0.34375 2.4297-0.85938 3.7031-1.5469v4.1875c-1.293 0.49219-2.5859 0.85547-3.875 1.0938-1.2812 0.25-2.5625 0.375-3.8438 0.375-3.0859 0-5.4805-0.78125-7.1875-2.3438-1.6992-1.5625-2.5469-3.7539-2.5469-6.5781 0-2.7812 0.83203-4.9609 2.5-6.5469 1.6758-1.5938 3.9844-2.3906 6.9219-2.3906 2.6758 0 4.8164 0.80859 6.4219 2.4219 1.6016 1.6055 2.4062 3.7578 2.4062 6.4531zm-5.5938-1.8125c0-1.0312-0.30469-1.8633-0.90625-2.5-0.59375-0.63281-1.3828-0.95312-2.3594-0.95312-1.0547 0-1.9062 0.29688-2.5625 0.89062s-1.0703 1.4492-1.2344 2.5625z"/>
    </symbol>
    <symbol id="i" overflow="visible"/>
    <symbol id="b" overflow="visible">
      <path d="m8.5469-21.844v4.8281h5.6094v3.8906h-5.6094v7.2188c0 0.79297 0.15625 1.3281 0.46875 1.6094 0.32031 0.27344 0.94531 0.40625 1.875 0.40625h2.7969v3.8906h-4.6719c-2.1484 0-3.668-0.44531-4.5625-1.3438-0.89844-0.89453-1.3438-2.4141-1.3438-4.5625v-7.2188h-2.7031v-3.8906h2.7031v-4.8281z"/>
    </symbol>
    <symbol id="h" overflow="visible"/>
    <symbol id="g" overflow="visible">
      <path d="m11.672-3.5156c1.1562 0 2.0391-0.42188 2.6562-1.2656 0.61328-0.85156 0.92188-2.0859 0.92188-3.7031 0-1.625-0.30859-2.8594-0.92188-3.7031-0.61719-0.85156-1.5-1.2812-2.6562-1.2812-1.168 0-2.0625 0.42969-2.6875 1.2812-0.625 0.85547-0.9375 2.0898-0.9375 3.7031 0 1.6055 0.3125 2.8359 0.9375 3.6875 0.625 0.85547 1.5195 1.2812 2.6875 1.2812zm-3.625-11c0.75-1 1.5781-1.7344 2.4844-2.2031 0.91406-0.46875 1.9688-0.70312 3.1562-0.70312 2.0938 0 3.8125 0.83594 5.1562 2.5 1.3516 1.668 2.0312 3.8125 2.0312 6.4375 0 2.6172-0.67969 4.7578-2.0312 6.4219-1.3438 1.668-3.0625 2.5-5.1562 2.5-1.1875 0-2.2422-0.23438-3.1562-0.70312-0.90625-0.46875-1.7344-1.1953-2.4844-2.1875v2.4531h-5.4375v-23.641h5.4375z"/>
    </symbol>
    <symbol id="m" overflow="visible">
      <path d="m0.375-17.016h5.4375l4.5781 11.547 3.8906-11.547h5.4375l-7.1562 18.625c-0.71875 1.8945-1.5586 3.2188-2.5156 3.9688-0.96094 0.75781-2.2188 1.1406-3.7812 1.1406h-3.1562v-3.5781h1.7031c0.92578 0 1.5977-0.14844 2.0156-0.4375 0.41406-0.29297 0.74219-0.82031 0.98438-1.5781l0.14062-0.46875z"/>
    </symbol>
    <symbol id="l" overflow="visible">
      <path d="m18.641-21.969v4.7969c-1.25-0.55078-2.4688-0.96875-3.6562-1.25-1.1797-0.28125-2.293-0.42188-3.3438-0.42188-1.3984 0-2.4336 0.19531-3.1094 0.57812-0.66797 0.375-1 0.96875-1 1.7812 0 0.61719 0.22266 1.0938 0.67188 1.4375 0.45703 0.33594 1.2734 0.62109 2.4531 0.85938l2.5 0.5c2.5195 0.51172 4.3125 1.2812 5.375 2.3125s1.5938 2.5 1.5938 4.4062c0 2.5-0.74609 4.3594-2.2344 5.5781-1.4805 1.2188-3.7422 1.8281-6.7812 1.8281-1.4375 0-2.8828-0.13672-4.3281-0.40625-1.4492-0.26953-2.8984-0.67578-4.3438-1.2188v-4.9375c1.4453 0.77344 2.8438 1.3555 4.1875 1.75 1.3516 0.38672 2.6602 0.57812 3.9219 0.57812 1.2695 0 2.2422-0.21094 2.9219-0.64062 0.67578-0.42578 1.0156-1.0352 1.0156-1.8281 0-0.70703-0.23047-1.25-0.6875-1.625-0.46094-0.38281-1.375-0.73438-2.75-1.0469l-2.2656-0.5c-2.2734-0.47656-3.9336-1.25-4.9844-2.3125-1.043-1.0703-1.5625-2.5078-1.5625-4.3125 0-2.25 0.72656-3.9844 2.1875-5.2031 1.457-1.2188 3.5508-1.8281 6.2812-1.8281 1.25 0 2.5312 0.09375 3.8438 0.28125 1.3203 0.1875 2.6875 0.46875 4.0938 0.84375z"/>
    </symbol>
    <symbol id="k" overflow="visible">
      <path d="m2.4375-6.625v-10.391h5.4688v1.7031c0 0.92969-0.007812 2.0898-0.015625 3.4844-0.011719 1.3867-0.015625 2.3125-0.015625 2.7812 0 1.3672 0.03125 2.3516 0.09375 2.9531 0.070312 0.60547 0.19531 1.043 0.375 1.3125 0.21875 0.35547 0.50391 0.63281 0.85938 0.82812 0.36328 0.1875 0.78125 0.28125 1.25 0.28125 1.1328 0 2.0234-0.42969 2.6719-1.2969 0.64453-0.875 0.96875-2.0859 0.96875-3.6406v-8.4062h5.4375v17.016h-5.4375v-2.4531c-0.82422 0.99219-1.6953 1.7188-2.6094 2.1875-0.91797 0.46875-1.9297 0.70312-3.0312 0.70312-1.9609 0-3.4531-0.59766-4.4844-1.7969-1.0234-1.207-1.5312-2.9609-1.5312-5.2656z"/>
    </symbol>
    <symbol id="f" overflow="visible">
      <path d="m2.6094-17.016h5.4375v17.016h-5.4375zm0-6.625h5.4375v4.4375h-5.4375z"/>
    </symbol>
    <symbol id="a" overflow="visible">
      <path d="m10.703-13.531c-1.1992 0-2.1172 0.43359-2.75 1.2969-0.63672 0.86719-0.95312 2.1172-0.95312 3.75 0 1.625 0.31641 2.8711 0.95312 3.7344 0.63281 0.86719 1.5508 1.2969 2.75 1.2969 1.1875 0 2.0938-0.42969 2.7188-1.2969 0.63281-0.86328 0.95312-2.1094 0.95312-3.7344 0-1.6328-0.32031-2.8828-0.95312-3.75-0.625-0.86328-1.5312-1.2969-2.7188-1.2969zm0-3.8906c2.9258 0 5.2109 0.79297 6.8594 2.375 1.6445 1.5742 2.4688 3.7617 2.4688 6.5625 0 2.793-0.82422 4.9805-2.4688 6.5625-1.6484 1.5742-3.9336 2.3594-6.8594 2.3594-2.9375 0-5.2344-0.78516-6.8906-2.3594-1.6484-1.582-2.4688-3.7695-2.4688-6.5625 0-2.8008 0.82031-4.9883 2.4688-6.5625 1.6562-1.582 3.9531-2.375 6.8906-2.375z"/>
    </symbol>
    <symbol id="t" overflow="visible"/>
    <symbol id="j" overflow="visible">
      <path d="m19.719-10.359v10.359h-5.4688v-7.9219c0-1.4688-0.039062-2.4766-0.10938-3.0312-0.0625-0.5625-0.17188-0.97656-0.32812-1.25-0.21875-0.35156-0.51172-0.62891-0.875-0.82812-0.36719-0.19531-0.77734-0.29688-1.2344-0.29688-1.1367 0-2.0312 0.44531-2.6875 1.3281-0.64844 0.875-0.96875 2.0859-0.96875 3.625v8.375h-5.4375v-17.016h5.4375v2.5c0.82031-1 1.6914-1.7344 2.6094-2.2031 0.92578-0.46875 1.9453-0.70312 3.0625-0.70312 1.957 0 3.4453 0.60547 4.4688 1.8125 1.0195 1.1992 1.5312 2.9492 1.5312 5.25z"/>
    </symbol>
    <symbol id="e" overflow="visible">
      <path d="m16.359-16.484v4.4375c-0.74219-0.50781-1.4844-0.88281-2.2344-1.125-0.74219-0.23828-1.5117-0.35938-2.3125-0.35938-1.5117 0-2.6953 0.44531-3.5469 1.3281-0.84375 0.88672-1.2656 2.125-1.2656 3.7188 0 1.5859 0.42188 2.8203 1.2656 3.7031 0.85156 0.88672 2.0352 1.3281 3.5469 1.3281 0.85156 0 1.6602-0.125 2.4219-0.375 0.76953-0.25 1.4766-0.625 2.125-1.125v4.4531c-0.85547 0.3125-1.7188 0.54688-2.5938 0.70312s-1.75 0.23438-2.625 0.23438c-3.0742 0-5.4766-0.78516-7.2031-2.3594-1.7305-1.5703-2.5938-3.7578-2.5938-6.5625 0-2.8125 0.86328-5.0039 2.5938-6.5781 1.7266-1.5703 4.1289-2.3594 7.2031-2.3594 0.88281 0 1.7578 0.078125 2.625 0.23438 0.86328 0.15625 1.7266 0.39062 2.5938 0.70312z"/>
    </symbol>
    <symbol id="s" overflow="visible">
      <path d="m13.812-23.641v3.5781h-3.0156c-0.77344 0-1.3086 0.14062-1.6094 0.42188-0.30469 0.27344-0.45312 0.75-0.45312 1.4375v1.1875h4.6406v3.8906h-4.6406v13.125h-5.4375v-13.125h-2.7031v-3.8906h2.7031v-1.1875c0-1.8516 0.51562-3.2227 1.5469-4.1094 1.0312-0.88281 2.6289-1.3281 4.7969-1.3281z"/>
    </symbol>
    <symbol id="r" overflow="visible">
      <path d="m18.375-14.188c0.6875-1.0508 1.5039-1.8516 2.4531-2.4062 0.94531-0.55078 1.9883-0.82812 3.125-0.82812 1.957 0 3.4453 0.60547 4.4688 1.8125 1.0195 1.1992 1.5312 2.9492 1.5312 5.25v10.359h-5.4688v-8.875c0.007813-0.125 0.015625-0.25781 0.015625-0.40625 0.007812-0.14453 0.015625-0.34766 0.015625-0.60938 0-1.207-0.17969-2.082-0.53125-2.625-0.35547-0.53906-0.92969-0.8125-1.7188-0.8125-1.0312 0-1.8281 0.42969-2.3906 1.2812-0.5625 0.85547-0.85547 2.0859-0.875 3.6875v8.3594h-5.4688v-8.875c0-1.8828-0.16406-3.0977-0.48438-3.6406-0.32422-0.53906-0.90234-0.8125-1.7344-0.8125-1.043 0-1.8516 0.43359-2.4219 1.2969-0.5625 0.85547-0.84375 2.0742-0.84375 3.6562v8.375h-5.4688v-17.016h5.4688v2.5c0.66406-0.96875 1.4297-1.6914 2.2969-2.1719 0.875-0.48828 1.832-0.73438 2.875-0.73438 1.1758 0 2.2109 0.28906 3.1094 0.85938 0.90625 0.5625 1.5859 1.3555 2.0469 2.375z"/>
    </symbol>
    <symbol id="q" overflow="visible">
      <path d="m19.719-10.359v10.359h-5.4688v-7.9062c0-1.4766-0.039062-2.4922-0.10938-3.0469-0.0625-0.5625-0.17188-0.97656-0.32812-1.25-0.21875-0.35156-0.51172-0.62891-0.875-0.82812-0.36719-0.19531-0.77734-0.29688-1.2344-0.29688-1.1367 0-2.0312 0.44531-2.6875 1.3281-0.64844 0.875-0.96875 2.0859-0.96875 3.625v8.375h-5.4375v-23.641h5.4375v9.125c0.82031-1 1.6914-1.7344 2.6094-2.2031 0.92578-0.46875 1.9453-0.70312 3.0625-0.70312 1.957 0 3.4453 0.60547 4.4688 1.8125 1.0195 1.1992 1.5312 2.9492 1.5312 5.25z"/>
    </symbol>
    <symbol id="p" overflow="visible">
      <path d="m2.8594-22.672h6.5312l8.25 15.547v-15.547h5.5469v22.672h-6.5469l-8.2344-15.562v15.562h-5.5469z"/>
    </symbol>
    <symbol id="o" overflow="visible">
      <path d="m2.8594-22.672h9.7031c2.8828 0 5.0977 0.64062 6.6406 1.9219 1.5508 1.2812 2.3281 3.1055 2.3281 5.4688 0 2.375-0.77734 4.2031-2.3281 5.4844-1.543 1.2812-3.7578 1.9219-6.6406 1.9219h-3.8594v7.875h-5.8438zm5.8438 4.2344v6.3281h3.2344c1.1328 0 2.0078-0.27344 2.625-0.82812 0.625-0.55078 0.9375-1.332 0.9375-2.3438 0-1.0078-0.3125-1.7852-0.9375-2.3281-0.61719-0.55078-1.4922-0.82812-2.625-0.82812z"/>
    </symbol>
    <symbol id="n" overflow="visible">
      <path d="m2.6094-17.016h5.4375v16.719c0 2.2695-0.54688 4.0039-1.6406 5.2031-1.0938 1.207-2.6797 1.8125-4.75 1.8125h-2.6875v-3.5781h0.9375c1.0312 0 1.7383-0.23438 2.125-0.70312 0.38281-0.46094 0.57812-1.3711 0.57812-2.7344zm0-6.625h5.4375v4.4375h-5.4375z"/>
    </symbol>
  </defs>
  <g transform="matrix(0.747755, 0, 0, 0.747755, -1.738532, 35.4576)" style="">
    <path d="M 530.58 174.821 C 530.568 150.766 511.084 131.278 487.049 131.278 C 478.045 131.286 469.756 134.102 462.819 138.774 C 460.007 117.458 441.807 101.001 419.71 100.985 C 410.194 100.993 401.429 104.071 394.261 109.247 C 389.148 90.903 372.351 77.435 352.378 77.435 C 331.597 77.447 314.241 91.994 309.913 111.513 C 309.538 113.747 309.726 113.263 309.64 114.263 C 309.569 116.579 309.522 121.712 309.495 128.822 C 302.519 124.06 294.143 121.193 285.054 121.189 C 264.261 121.213 246.917 135.767 242.593 155.263 L 242.382 157.212 L 242.382 183.931 C 236.82 176.017 227.015 169.638 214.737 169.802 C 207.362 169.822 199.342 171.806 190.428 175.861 C 187.448 177.228 185.44 180.08 185.178 183.345 C 185.178 183.345 185.166 183.67 185.018 184.752 C 183.956 192.299 177.307 228.768 141.62 274.471 C 140.214 276.264 139.55 278.502 139.733 280.768 C 139.784 281.158 144.374 336.725 162.893 393.068 C 172.19 421.267 184.909 449.72 202.952 471.771 C 220.854 493.759 245.081 509.576 275.409 509.521 C 275.995 509.509 276.304 509.509 276.405 509.509 L 278.753 509.532 C 284.609 510.614 290.651 511.204 296.835 511.192 L 431.515 511.204 C 486.683 511.192 531.413 466.474 531.413 411.282 L 530.58 174.821 Z M 463.256 165.888 C 466.889 156.235 476.123 149.314 487.049 149.314 L 487.049 149.325 C 501.123 149.349 512.51 160.735 512.533 174.829 L 512.533 233.735 C 512.533 235.329 512.365 236.923 512.072 238.532 L 512.072 238.544 C 509.826 250.286 499.478 259.22 487.052 259.2 C 479.845 259.208 473.368 256.2 468.74 251.384 C 466.713 249.274 465.08 246.805 463.869 244.098 C 463.658 243.614 463.451 243.13 463.26 242.622 C 463.131 242.266 462.932 241.93 462.822 241.563 L 462.822 241.551 C 461.994 239.036 461.564 236.438 461.553 233.723 L 461.564 174.817 C 461.553 173.204 461.74 171.544 462.045 169.872 C 462.225 168.927 462.494 167.962 462.822 166.942 C 462.928 166.583 463.127 166.255 463.256 165.888 L 463.256 165.888 Z M 419.666 119.029 L 419.729 119.029 C 433.803 119.052 445.202 130.455 445.229 144.529 L 445.229 260.659 C 445.205 269.456 440.756 277.198 433.971 281.788 C 429.912 284.526 425.006 286.135 419.729 286.151 C 411.123 286.163 403.526 281.87 398.909 275.319 C 397.596 273.44 396.537 271.362 395.76 269.159 C 395.666 268.928 395.553 268.71 395.467 268.467 C 394.678 266.003 394.241 263.389 394.229 260.678 L 394.241 144.538 C 394.241 141.796 394.678 139.187 395.479 136.667 C 395.577 136.402 395.709 136.144 395.807 135.878 C 399.35 126.089 408.67 119.023 419.666 119.023 L 419.666 119.029 Z M 327.631 117.197 C 327.655 116.158 327.67 115.341 327.682 114.822 L 327.682 114.79 C 330.451 103.7 340.475 95.45 352.397 95.462 C 366.467 95.482 377.854 106.86 377.889 120.919 C 377.889 121.31 377.596 265.599 377.67 267.829 C 377.694 268.939 377.733 269.845 377.783 270.618 C 377.834 270.947 377.846 271.146 377.858 271.353 C 377.846 271.509 377.807 271.665 377.795 271.826 C 377.744 272.872 377.615 273.892 377.44 274.911 C 377.365 275.384 377.342 275.88 377.233 276.349 C 376.979 277.513 376.584 278.603 376.162 279.697 C 375.994 280.138 375.881 280.607 375.701 281.048 C 375.24 282.079 374.654 283.029 374.057 283.99 C 373.803 284.412 373.596 284.884 373.315 285.29 C 372.705 286.169 371.99 286.947 371.287 287.728 C 370.908 288.134 370.596 288.599 370.194 288.986 C 369.479 289.677 368.662 290.267 367.873 290.884 C 367.389 291.263 366.951 291.685 366.447 292.029 C 365.631 292.564 364.748 292.97 363.873 293.415 C 363.283 293.712 362.748 294.064 362.162 294.325 C 361.229 294.716 360.209 294.954 359.213 295.236 C 358.616 295.396 358.049 295.642 357.448 295.771 C 355.928 296.076 354.35 296.22 352.744 296.243 C 352.627 296.243 352.526 296.275 352.401 296.275 C 351.455 296.267 350.545 296.095 349.631 295.982 C 337.092 294.568 327.854 284.185 327.752 270.787 C 327.744 270.619 327.608 119.297 327.631 117.197 L 327.631 117.197 Z M 260.424 158.302 C 263.28 147.353 273.225 139.204 285.069 139.232 C 295.94 139.22 305.19 146.044 308.874 155.623 L 308.874 252.728 C 308.683 253.239 308.476 253.743 308.245 254.239 C 308.003 254.782 307.765 255.321 307.487 255.845 C 307.163 256.466 306.784 257.032 306.409 257.61 C 306.073 258.122 305.761 258.642 305.39 259.122 C 304.991 259.665 304.538 260.153 304.097 260.653 C 303.687 261.114 303.296 261.595 302.851 262.036 C 302.37 262.501 301.851 262.919 301.339 263.356 C 300.866 263.747 300.413 264.165 299.909 264.524 C 299.355 264.915 298.757 265.251 298.175 265.606 C 297.659 265.931 297.155 266.259 296.612 266.54 C 295.98 266.868 295.3 267.126 294.628 267.392 C 294.093 267.61 293.569 267.864 293.011 268.04 C 292.237 268.302 291.429 268.458 290.628 268.646 C 290.136 268.759 289.659 268.911 289.151 269.001 C 287.894 269.208 286.601 269.298 285.288 269.313 C 285.218 269.313 285.151 269.333 285.081 269.333 C 283.577 269.333 282.101 269.204 280.675 268.942 C 280.237 268.868 279.835 268.712 279.405 268.614 C 278.429 268.396 277.456 268.177 276.523 267.841 C 275.987 267.653 275.483 267.376 274.96 267.157 C 274.194 266.81 273.409 266.509 272.691 266.099 C 272.132 265.782 271.632 265.396 271.097 265.04 C 270.468 264.63 269.816 264.239 269.23 263.763 C 268.706 263.345 268.241 262.853 267.749 262.38 C 267.233 261.899 266.69 261.427 266.206 260.903 C 265.741 260.38 265.347 259.81 264.925 259.259 C 264.503 258.704 264.054 258.169 263.675 257.571 C 263.296 256.966 262.991 256.345 262.659 255.716 C 262.335 255.095 261.987 254.501 261.702 253.856 C 261.429 253.208 261.222 252.513 260.999 251.841 C 260.8 251.243 260.589 250.657 260.433 250.044 L 260.437 158.302 L 260.424 158.302 Z M 242.393 260.102 L 242.393 315.997 L 235.12 313.844 C 234.362 313.09 232.276 310.446 232.147 301.684 C 232.108 293.532 234.424 280.211 242.393 260.102 L 242.393 260.102 Z M 513.373 411.292 C 513.299 456.515 476.705 493.097 431.506 493.171 L 296.846 493.171 C 291.557 493.171 286.393 492.675 281.369 491.69 L 279.771 491.542 L 276.779 491.503 C 276.572 491.491 276.389 491.491 276.213 491.491 C 275.869 491.491 275.596 491.503 275.435 491.503 C 251.603 491.44 232.919 479.706 216.919 460.343 C 193.056 431.417 177.771 385.851 169.056 347.753 C 164.662 328.706 161.818 311.503 160.084 299.132 C 159.045 291.702 158.404 286.042 158.06 282.71 C 190.962 239.558 200.021 203.812 202.392 190.421 C 207.482 188.534 211.595 187.831 214.763 187.831 C 221.466 188.007 224.595 190.284 228.005 194.757 C 234.322 203.163 235.958 220.616 235.779 228.339 C 235.779 229.272 235.771 230.038 235.755 230.655 C 219.298 264.702 214.157 286.616 214.107 301.682 C 213.658 321.772 225.127 329.858 227.884 330.459 L 248.872 336.717 C 250.204 337.107 268.595 337.549 282.903 342.029 C 299.219 347.127 316.423 356.83 324.88 375.244 C 326.392 378.522 329.666 380.483 333.064 380.483 C 334.333 380.483 335.607 380.217 336.83 379.643 C 341.353 377.553 343.318 372.213 341.24 367.682 C 329.678 342.713 307.068 330.655 288.263 324.803 C 277.146 321.35 267.095 319.92 260.439 319.322 L 260.431 279.685 C 261.029 280.092 261.689 280.4 262.302 280.787 C 263.079 281.271 263.864 281.74 264.677 282.174 C 265.935 282.845 267.247 283.424 268.571 283.97 C 269.388 284.318 270.185 284.666 271.017 284.955 C 272.54 285.47 274.122 285.865 275.716 286.205 C 276.419 286.361 277.103 286.584 277.825 286.701 C 280.185 287.092 282.591 287.334 285.064 287.349 C 285.224 287.349 285.392 287.31 285.56 287.31 C 287.751 287.279 289.907 287.119 292.013 286.775 C 292.724 286.658 293.396 286.431 294.091 286.291 C 295.614 285.963 297.142 285.642 298.603 285.166 C 299.403 284.904 300.153 284.525 300.935 284.224 C 302.228 283.728 303.524 283.228 304.747 282.599 C 305.548 282.193 306.298 281.689 307.075 281.232 C 307.985 280.689 308.931 280.232 309.794 279.634 C 313.298 296.489 326.564 309.751 343.411 313.302 C 343.524 313.326 343.634 313.353 343.747 313.373 C 344.985 313.635 346.247 313.814 347.528 313.97 C 347.696 313.99 347.876 314.025 348.052 314.053 C 349.477 314.181 350.927 314.283 352.395 314.283 C 352.52 314.283 352.626 314.252 352.751 314.252 C 354.423 314.232 356.056 314.123 357.681 313.916 C 358.247 313.845 358.794 313.76 359.353 313.662 C 360.599 313.463 361.829 313.209 363.036 312.904 C 363.548 312.775 364.056 312.666 364.556 312.513 C 366.185 312.053 367.786 311.506 369.329 310.845 C 369.528 310.763 369.708 310.666 369.903 310.58 C 371.29 309.97 372.614 309.291 373.915 308.553 C 374.337 308.31 374.774 308.056 375.177 307.799 C 376.313 307.107 377.384 306.369 378.442 305.576 C 378.759 305.338 379.075 305.115 379.384 304.881 C 380.727 303.818 381.997 302.685 383.196 301.482 C 383.341 301.353 383.45 301.201 383.587 301.072 C 384.645 299.982 385.641 298.838 386.579 297.631 C 386.833 297.306 387.075 296.982 387.321 296.646 C 388.2 295.478 389.009 294.252 389.766 292.986 C 389.872 292.83 389.985 292.681 390.091 292.513 C 391.212 293.56 392.388 294.517 393.595 295.451 C 393.849 295.627 394.106 295.799 394.36 295.978 C 395.942 297.123 397.602 298.174 399.321 299.084 C 399.45 299.154 399.552 299.22 399.669 299.283 C 401.466 300.217 403.352 300.986 405.263 301.677 C 405.622 301.806 405.966 301.931 406.333 302.052 C 408.223 302.67 410.173 303.166 412.169 303.509 C 412.555 303.572 412.934 303.615 413.321 303.67 C 415.356 303.974 417.434 304.166 419.567 304.181 C 419.618 304.181 419.68 304.193 419.727 304.193 C 420.044 304.193 420.345 304.15 420.637 304.142 C 421.719 304.119 422.802 304.072 423.86 303.986 C 424.434 303.924 424.997 303.838 425.552 303.756 C 426.348 303.642 427.149 303.549 427.927 303.388 C 428.524 303.271 429.11 303.134 429.712 302.998 C 430.423 302.83 431.149 302.65 431.876 302.443 C 432.474 302.267 433.044 302.068 433.626 301.884 C 434.321 301.654 435.013 301.4 435.704 301.131 C 436.263 300.908 436.813 300.677 437.36 300.439 C 438.052 300.127 438.727 299.791 439.387 299.463 C 439.899 299.209 440.419 298.947 440.919 298.666 C 441.614 298.275 442.305 297.845 442.985 297.416 C 443.403 297.142 443.864 296.888 444.274 296.599 C 445.251 295.935 446.223 295.205 447.141 294.451 C 447.434 294.213 447.716 293.959 448.005 293.717 C 448.77 293.052 449.536 292.365 450.262 291.65 C 450.63 291.295 450.966 290.904 451.321 290.525 C 451.868 289.947 452.415 289.369 452.927 288.771 C 453.302 288.342 453.641 287.881 453.997 287.439 C 454.446 286.849 454.907 286.263 455.341 285.654 C 455.669 285.174 455.989 284.685 456.306 284.193 C 456.704 283.564 457.095 282.955 457.47 282.306 C 457.763 281.795 458.056 281.279 458.321 280.756 C 458.677 280.095 458.985 279.412 459.306 278.72 C 459.548 278.205 459.79 277.681 460.009 277.146 C 460.313 276.388 460.595 275.611 460.86 274.83 C 461.009 274.345 461.216 273.873 461.356 273.373 C 461.747 272.127 462.071 270.857 462.341 269.564 C 463.22 270.17 464.177 270.635 465.079 271.178 C 465.845 271.627 466.583 272.119 467.376 272.529 C 468.583 273.15 469.872 273.639 471.157 274.146 C 471.946 274.459 472.7 274.818 473.52 275.092 C 474.946 275.556 476.462 275.869 477.97 276.201 C 478.681 276.346 479.384 276.592 480.11 276.697 C 482.368 277.064 484.677 277.271 487.048 277.271 C 489.395 277.271 491.677 277.053 493.919 276.685 C 494.11 276.666 494.306 276.646 494.485 276.615 C 496.626 276.24 498.692 275.701 500.696 275.033 C 500.962 274.939 501.231 274.885 501.485 274.779 C 503.434 274.107 505.294 273.267 507.102 272.326 C 507.384 272.178 507.661 272.033 507.93 271.889 C 509.704 270.92 511.403 269.822 513.009 268.627 C 513.122 268.541 513.262 268.478 513.376 268.385 L 513.376 411.315 L 513.372 411.319 L 513.373 411.292 Z"/>
    <use transform="matrix(1, 0, 0, 1, 85.98046875, 653.33203125)" xlink:href="#u"/>
    <use transform="matrix(1, 0, 0, 1, 108.8125, 653.33203125)" xlink:href="#d"/>
    <use transform="matrix(1, 0, 0, 1, 124.15625, 653.33203125)" xlink:href="#c"/>
    <use transform="matrix(1, 0, 0, 1, 145.2578125, 653.33203125)" xlink:href="#i"/>
    <use transform="matrix(1, 0, 0, 1, 165.08609, 652.750061)" xlink:href="#b"/>
    <use transform="matrix(1, 0, 0, 1, 181.12109375, 653.33203125)" xlink:href="#c"/>
    <use transform="matrix(1, 0, 0, 1, 202.22265625, 653.33203125)" xlink:href="#h"/>
    <use transform="matrix(1, 0, 0, 1, 235.32421875, 653.33203125)" xlink:href="#g"/>
    <use transform="matrix(1, 0, 0, 1, 257.59375, 653.33203125)" xlink:href="#m"/>
    <use transform="matrix(1, 0, 0, 1, 288.70703125, 653.33203125)" xlink:href="#l"/>
    <use transform="matrix(1, 0, 0, 1, 311.11328125, 653.33203125)" xlink:href="#b"/>
    <use transform="matrix(1, 0, 0, 1, 325.984375, 653.33203125)" xlink:href="#k"/>
    <use transform="matrix(1, 0, 0, 1, 348.132813, 652.028809)" xlink:href="#h"/>
    <use transform="matrix(1, 0, 0, 1, 370.40234375, 653.33203125)" xlink:href="#f"/>
    <use transform="matrix(1, 0, 0, 1, 381.06640625, 653.33203125)" xlink:href="#a"/>
    <use transform="matrix(1, 0, 0, 1, 413.26953125, 653.33203125)" xlink:href="#t"/>
    <use transform="matrix(1, 0, 0, 1, 434.5234375, 653.33203125)" xlink:href="#f"/>
    <use transform="matrix(1, 0, 0, 1, 445.1875, 653.33203125)" xlink:href="#g"/>
    <use transform="matrix(1, 0, 0, 1, 467.45703125, 653.33203125)" xlink:href="#a"/>
    <use transform="matrix(1, 0, 0, 1, 488.83203125, 653.33203125)" xlink:href="#j"/>
    <use transform="matrix(1, 0, 0, 1, 510.98046875, 653.33203125)" xlink:href="#i"/>
    <use transform="matrix(1, 0, 0, 1, 531.97265625, 653.33203125)" xlink:href="#e"/>
    <use transform="matrix(1, 0, 0, 1, 550.4140625, 653.33203125)" xlink:href="#e"/>
    <use transform="matrix(1, 0, 0, 1, 568.85546875, 653.33203125)" xlink:href="#f"/>
    <use transform="matrix(1, 0, 0, 1, 85.98046875, 684.4453125)" xlink:href="#s"/>
    <use transform="matrix(1, 0, 0, 1, 99.515625, 684.4453125)" xlink:href="#d"/>
    <use transform="matrix(1, 0, 0, 1, 114.859375, 684.4453125)" xlink:href="#a"/>
    <use transform="matrix(1, 0, 0, 1, 136.234375, 684.4453125)" xlink:href="#r"/>
    <use transform="matrix(1, 0, 0, 1, 179.48046875, 684.4453125)" xlink:href="#b"/>
    <use transform="matrix(1, 0, 0, 1, 194.35546875, 684.4453125)" xlink:href="#q"/>
    <use transform="matrix(1, 0, 0, 1, 216.50390625, 684.4453125)" xlink:href="#c"/>
    <use transform="matrix(1, 0, 0, 1, 248.43359375, 684.4453125)" xlink:href="#p"/>
    <use transform="matrix(1, 0, 0, 1, 274.47265625, 684.4453125)" xlink:href="#a"/>
    <use transform="matrix(1, 0, 0, 1, 295.84375, 684.4453125)" xlink:href="#k"/>
    <use transform="matrix(1, 0, 0, 1, 317.9921875, 684.4453125)" xlink:href="#j"/>
    <use transform="matrix(1, 0, 0, 1, 350.97265625, 684.4453125)" xlink:href="#o"/>
    <use transform="matrix(1, 0, 0, 1, 373.7734375, 684.4453125)" xlink:href="#d"/>
    <use transform="matrix(1, 0, 0, 1, 389.1171875, 684.4453125)" xlink:href="#a"/>
    <use transform="matrix(1, 0, 0, 1, 410.4921875, 684.4453125)" xlink:href="#n"/>
    <use transform="matrix(1, 0, 0, 1, 421.15625, 684.4453125)" xlink:href="#c"/>
    <use transform="matrix(1, 0, 0, 1, 442.25390625, 684.4453125)" xlink:href="#e"/>
    <use transform="matrix(1, 0, 0, 1, 460.69921875, 684.4453125)" xlink:href="#b"/>
  </g>
</svg>