<?xml version="1.0" encoding="utf-8"?>
<svg viewBox="0 0 500 500" xmlns="http://www.w3.org/2000/svg" xmlns:xlink="http://www.w3.org/1999/xlink">
  <defs>
    <symbol id="u" overflow="visible">
      <path d="m20.844-1.25c-1.0742 0.5625-2.1953 0.98438-3.3594 1.2656-1.168 0.28125-2.3828 0.42188-3.6406 0.42188-3.7812 0-6.7773-1.0508-8.9844-3.1562-2.2109-2.1133-3.3125-4.9766-3.3125-8.5938 0-3.625 1.1016-6.4922 3.3125-8.6094 2.207-2.1133 5.2031-3.1719 8.9844-3.1719 1.2578 0 2.4727 0.14844 3.6406 0.4375 1.1641 0.28125 2.2852 0.69922 3.3594 1.25v4.7031c-1.0859-0.73828-2.1523-1.2812-3.2031-1.625-1.0547-0.34375-2.1641-0.51562-3.3281-0.51562-2.0859 0-3.7266 0.66797-4.9219 2-1.1992 1.3359-1.7969 3.1797-1.7969 5.5312 0 2.3359 0.59766 4.1719 1.7969 5.5156 1.1953 1.3359 2.8359 2 4.9219 2 1.1641 0 2.2734-0.17188 3.3281-0.51562 1.0508-0.34375 2.1172-0.88281 3.2031-1.625z"/>
    </symbol>
    <symbol id="d" overflow="visible">
      <path d="m15.25-12.375c-0.48047-0.22656-0.95312-0.39453-1.4219-0.5-0.46875-0.10156-0.94531-0.15625-1.4219-0.15625-1.3984 0-2.4766 0.44922-3.2344 1.3438-0.75 0.89844-1.125 2.1797-1.125 3.8438v7.8438h-5.4375v-17.016h5.4375v2.7969c0.69531-1.1133 1.5-1.9258 2.4062-2.4375 0.90625-0.50781 1.9922-0.76562 3.2656-0.76562 0.17578 0 0.36719 0.011719 0.57812 0.03125 0.21875 0.011719 0.53125 0.042969 0.9375 0.09375z"/>
    </symbol>
    <symbol id="c" overflow="visible">
      <path d="m19.594-8.5469v1.5469h-12.719c0.13281 1.2734 0.59766 2.2305 1.3906 2.875 0.78906 0.63672 1.8945 0.95312 3.3125 0.95312 1.1445 0 2.3164-0.16406 3.5156-0.5 1.1953-0.34375 2.4297-0.85938 3.7031-1.5469v4.1875c-1.293 0.49219-2.5859 0.85547-3.875 1.0938-1.2812 0.25-2.5625 0.375-3.8438 0.375-3.0859 0-5.4805-0.78125-7.1875-2.3438-1.6992-1.5625-2.5469-3.7539-2.5469-6.5781 0-2.7812 0.83203-4.9609 2.5-6.5469 1.6758-1.5938 3.9844-2.3906 6.9219-2.3906 2.6758 0 4.8164 0.80859 6.4219 2.4219 1.6016 1.6055 2.4062 3.7578 2.4062 6.4531zm-5.5938-1.8125c0-1.0312-0.30469-1.8633-0.90625-2.5-0.59375-0.63281-1.3828-0.95312-2.3594-0.95312-1.0547 0-1.9062 0.29688-2.5625 0.89062s-1.0703 1.4492-1.2344 2.5625z"/>
    </symbol>
    <symbol id="i" overflow="visible">
      <path d="m10.234-7.6562c-1.1367 0-1.9922 0.19531-2.5625 0.57812-0.5625 0.38672-0.84375 0.95312-0.84375 1.7031 0 0.6875 0.22656 1.2305 0.6875 1.625 0.45703 0.38672 1.0977 0.57812 1.9219 0.57812 1.0195 0 1.8789-0.36328 2.5781-1.0938 0.69531-0.73828 1.0469-1.6602 1.0469-2.7656v-0.625zm8.3125-2.0469v9.7031h-5.4844v-2.5156c-0.73047 1.0312-1.5547 1.7812-2.4688 2.25-0.90625 0.46875-2.0117 0.70312-3.3125 0.70312-1.7617 0-3.1953-0.50781-4.2969-1.5312-1.0938-1.0312-1.6406-2.3672-1.6406-4.0156 0-1.9883 0.67969-3.4453 2.0469-4.375 1.375-0.9375 3.5312-1.4062 6.4688-1.4062h3.2031v-0.42188c0-0.86328-0.33984-1.4922-1.0156-1.8906-0.67969-0.40625-1.7344-0.60938-3.1719-0.60938-1.168 0-2.2578 0.12109-3.2656 0.35938-1 0.23047-1.9297 0.57812-2.7812 1.0469v-4.1562c1.1641-0.28125 2.332-0.49219 3.5-0.64062 1.1758-0.14453 2.3516-0.21875 3.5312-0.21875 3.0703 0 5.2852 0.60547 6.6406 1.8125 1.3633 1.2109 2.0469 3.1797 2.0469 5.9062z"/>
    </symbol>
    <symbol id="b" overflow="visible">
      <path d="m8.5469-21.844v4.8281h5.6094v3.8906h-5.6094v7.2188c0 0.79297 0.15625 1.3281 0.46875 1.6094 0.32031 0.27344 0.94531 0.40625 1.875 0.40625h2.7969v3.8906h-4.6719c-2.1484 0-3.668-0.44531-4.5625-1.3438-0.89844-0.89453-1.3438-2.4141-1.3438-4.5625v-7.2188h-2.7031v-3.8906h2.7031v-4.8281z"/>
    </symbol>
    <symbol id="h" overflow="visible">
      <path d="m14.188-14.516v-9.125h5.4688v23.641h-5.4688v-2.4531c-0.75 1-1.5781 1.7344-2.4844 2.2031-0.89844 0.45703-1.9375 0.6875-3.125 0.6875-2.0938 0-3.8203-0.83203-5.1719-2.5-1.3438-1.6641-2.0156-3.8047-2.0156-6.4219 0-2.625 0.67188-4.7695 2.0156-6.4375 1.3516-1.6641 3.0781-2.5 5.1719-2.5 1.1758 0 2.2188 0.23438 3.125 0.70312s1.7344 1.2031 2.4844 2.2031zm-3.5781 11c1.1562 0 2.0391-0.42188 2.6562-1.2656 0.61328-0.85156 0.92188-2.0859 0.92188-3.7031 0-1.625-0.30859-2.8594-0.92188-3.7031-0.61719-0.85156-1.5-1.2812-2.6562-1.2812s-2.043 0.42969-2.6562 1.2812c-0.61719 0.84375-0.92188 2.0781-0.92188 3.7031 0 1.6172 0.30469 2.8516 0.92188 3.7031 0.61328 0.84375 1.5 1.2656 2.6562 1.2656z"/>
    </symbol>
    <symbol id="g" overflow="visible">
      <path d="m11.672-3.5156c1.1562 0 2.0391-0.42188 2.6562-1.2656 0.61328-0.85156 0.92188-2.0859 0.92188-3.7031 0-1.625-0.30859-2.8594-0.92188-3.7031-0.61719-0.85156-1.5-1.2812-2.6562-1.2812-1.168 0-2.0625 0.42969-2.6875 1.2812-0.625 0.85547-0.9375 2.0898-0.9375 3.7031 0 1.6055 0.3125 2.8359 0.9375 3.6875 0.625 0.85547 1.5195 1.2812 2.6875 1.2812zm-3.625-11c0.75-1 1.5781-1.7344 2.4844-2.2031 0.91406-0.46875 1.9688-0.70312 3.1562-0.70312 2.0938 0 3.8125 0.83594 5.1562 2.5 1.3516 1.668 2.0312 3.8125 2.0312 6.4375 0 2.6172-0.67969 4.7578-2.0312 6.4219-1.3438 1.668-3.0625 2.5-5.1562 2.5-1.1875 0-2.2422-0.23438-3.1562-0.70312-0.90625-0.46875-1.7344-1.1953-2.4844-2.1875v2.4531h-5.4375v-23.641h5.4375z"/>
    </symbol>
    <symbol id="m" overflow="visible">
      <path d="m0.375-17.016h5.4375l4.5781 11.547 3.8906-11.547h5.4375l-7.1562 18.625c-0.71875 1.8945-1.5586 3.2188-2.5156 3.9688-0.96094 0.75781-2.2188 1.1406-3.7812 1.1406h-3.1562v-3.5781h1.7031c0.92578 0 1.5977-0.14844 2.0156-0.4375 0.41406-0.29297 0.74219-0.82031 0.98438-1.5781l0.14062-0.46875z"/>
    </symbol>
    <symbol id="l" overflow="visible">
      <path d="m18.641-21.969v4.7969c-1.25-0.55078-2.4688-0.96875-3.6562-1.25-1.1797-0.28125-2.293-0.42188-3.3438-0.42188-1.3984 0-2.4336 0.19531-3.1094 0.57812-0.66797 0.375-1 0.96875-1 1.7812 0 0.61719 0.22266 1.0938 0.67188 1.4375 0.45703 0.33594 1.2734 0.62109 2.4531 0.85938l2.5 0.5c2.5195 0.51172 4.3125 1.2812 5.375 2.3125s1.5938 2.5 1.5938 4.4062c0 2.5-0.74609 4.3594-2.2344 5.5781-1.4805 1.2188-3.7422 1.8281-6.7812 1.8281-1.4375 0-2.8828-0.13672-4.3281-0.40625-1.4492-0.26953-2.8984-0.67578-4.3438-1.2188v-4.9375c1.4453 0.77344 2.8438 1.3555 4.1875 1.75 1.3516 0.38672 2.6602 0.57812 3.9219 0.57812 1.2695 0 2.2422-0.21094 2.9219-0.64062 0.67578-0.42578 1.0156-1.0352 1.0156-1.8281 0-0.70703-0.23047-1.25-0.6875-1.625-0.46094-0.38281-1.375-0.73438-2.75-1.0469l-2.2656-0.5c-2.2734-0.47656-3.9336-1.25-4.9844-2.3125-1.043-1.0703-1.5625-2.5078-1.5625-4.3125 0-2.25 0.72656-3.9844 2.1875-5.2031 1.457-1.2188 3.5508-1.8281 6.2812-1.8281 1.25 0 2.5312 0.09375 3.8438 0.28125 1.3203 0.1875 2.6875 0.46875 4.0938 0.84375z"/>
    </symbol>
    <symbol id="k" overflow="visible">
      <path d="m2.4375-6.625v-10.391h5.4688v1.7031c0 0.92969-0.007812 2.0898-0.015625 3.4844-0.011719 1.3867-0.015625 2.3125-0.015625 2.7812 0 1.3672 0.03125 2.3516 0.09375 2.9531 0.070312 0.60547 0.19531 1.043 0.375 1.3125 0.21875 0.35547 0.50391 0.63281 0.85938 0.82812 0.36328 0.1875 0.78125 0.28125 1.25 0.28125 1.1328 0 2.0234-0.42969 2.6719-1.2969 0.64453-0.875 0.96875-2.0859 0.96875-3.6406v-8.4062h5.4375v17.016h-5.4375v-2.4531c-0.82422 0.99219-1.6953 1.7188-2.6094 2.1875-0.91797 0.46875-1.9297 0.70312-3.0312 0.70312-1.9609 0-3.4531-0.59766-4.4844-1.7969-1.0234-1.207-1.5312-2.9609-1.5312-5.2656z"/>
    </symbol>
    <symbol id="f" overflow="visible">
      <path d="m2.6094-17.016h5.4375v17.016h-5.4375zm0-6.625h5.4375v4.4375h-5.4375z"/>
    </symbol>
    <symbol id="a" overflow="visible">
      <path d="m10.703-13.531c-1.1992 0-2.1172 0.43359-2.75 1.2969-0.63672 0.86719-0.95312 2.1172-0.95312 3.75 0 1.625 0.31641 2.8711 0.95312 3.7344 0.63281 0.86719 1.5508 1.2969 2.75 1.2969 1.1875 0 2.0938-0.42969 2.7188-1.2969 0.63281-0.86328 0.95312-2.1094 0.95312-3.7344 0-1.6328-0.32031-2.8828-0.95312-3.75-0.625-0.86328-1.5312-1.2969-2.7188-1.2969zm0-3.8906c2.9258 0 5.2109 0.79297 6.8594 2.375 1.6445 1.5742 2.4688 3.7617 2.4688 6.5625 0 2.793-0.82422 4.9805-2.4688 6.5625-1.6484 1.5742-3.9336 2.3594-6.8594 2.3594-2.9375 0-5.2344-0.78516-6.8906-2.3594-1.6484-1.582-2.4688-3.7695-2.4688-6.5625 0-2.8008 0.82031-4.9883 2.4688-6.5625 1.6562-1.582 3.9531-2.375 6.8906-2.375z"/>
    </symbol>
    <symbol id="t" overflow="visible">
      <path d="m2.8594-22.672h15.781v4.4062h-9.9375v4.2344h9.3438v4.4219h-9.3438v9.6094h-5.8438z"/>
    </symbol>
    <symbol id="j" overflow="visible">
      <path d="m19.719-10.359v10.359h-5.4688v-7.9219c0-1.4688-0.039062-2.4766-0.10938-3.0312-0.0625-0.5625-0.17188-0.97656-0.32812-1.25-0.21875-0.35156-0.51172-0.62891-0.875-0.82812-0.36719-0.19531-0.77734-0.29688-1.2344-0.29688-1.1367 0-2.0312 0.44531-2.6875 1.3281-0.64844 0.875-0.96875 2.0859-0.96875 3.625v8.375h-5.4375v-17.016h5.4375v2.5c0.82031-1 1.6914-1.7344 2.6094-2.2031 0.92578-0.46875 1.9453-0.70312 3.0625-0.70312 1.957 0 3.4453 0.60547 4.4688 1.8125 1.0195 1.1992 1.5312 2.9492 1.5312 5.25z"/>
    </symbol>
    <symbol id="e" overflow="visible">
      <path d="m16.359-16.484v4.4375c-0.74219-0.50781-1.4844-0.88281-2.2344-1.125-0.74219-0.23828-1.5117-0.35938-2.3125-0.35938-1.5117 0-2.6953 0.44531-3.5469 1.3281-0.84375 0.88672-1.2656 2.125-1.2656 3.7188 0 1.5859 0.42188 2.8203 1.2656 3.7031 0.85156 0.88672 2.0352 1.3281 3.5469 1.3281 0.85156 0 1.6602-0.125 2.4219-0.375 0.76953-0.25 1.4766-0.625 2.125-1.125v4.4531c-0.85547 0.3125-1.7188 0.54688-2.5938 0.70312s-1.75 0.23438-2.625 0.23438c-3.0742 0-5.4766-0.78516-7.2031-2.3594-1.7305-1.5703-2.5938-3.7578-2.5938-6.5625 0-2.8125 0.86328-5.0039 2.5938-6.5781 1.7266-1.5703 4.1289-2.3594 7.2031-2.3594 0.88281 0 1.7578 0.078125 2.625 0.23438 0.86328 0.15625 1.7266 0.39062 2.5938 0.70312z"/>
    </symbol>
    <symbol id="s" overflow="visible">
      <path d="m13.812-23.641v3.5781h-3.0156c-0.77344 0-1.3086 0.14062-1.6094 0.42188-0.30469 0.27344-0.45312 0.75-0.45312 1.4375v1.1875h4.6406v3.8906h-4.6406v13.125h-5.4375v-13.125h-2.7031v-3.8906h2.7031v-1.1875c0-1.8516 0.51562-3.2227 1.5469-4.1094 1.0312-0.88281 2.6289-1.3281 4.7969-1.3281z"/>
    </symbol>
    <symbol id="r" overflow="visible">
      <path d="m18.375-14.188c0.6875-1.0508 1.5039-1.8516 2.4531-2.4062 0.94531-0.55078 1.9883-0.82812 3.125-0.82812 1.957 0 3.4453 0.60547 4.4688 1.8125 1.0195 1.1992 1.5312 2.9492 1.5312 5.25v10.359h-5.4688v-8.875c0.007813-0.125 0.015625-0.25781 0.015625-0.40625 0.007812-0.14453 0.015625-0.34766 0.015625-0.60938 0-1.207-0.17969-2.082-0.53125-2.625-0.35547-0.53906-0.92969-0.8125-1.7188-0.8125-1.0312 0-1.8281 0.42969-2.3906 1.2812-0.5625 0.85547-0.85547 2.0859-0.875 3.6875v8.3594h-5.4688v-8.875c0-1.8828-0.16406-3.0977-0.48438-3.6406-0.32422-0.53906-0.90234-0.8125-1.7344-0.8125-1.043 0-1.8516 0.43359-2.4219 1.2969-0.5625 0.85547-0.84375 2.0742-0.84375 3.6562v8.375h-5.4688v-17.016h5.4688v2.5c0.66406-0.96875 1.4297-1.6914 2.2969-2.1719 0.875-0.48828 1.832-0.73438 2.875-0.73438 1.1758 0 2.2109 0.28906 3.1094 0.85938 0.90625 0.5625 1.5859 1.3555 2.0469 2.375z"/>
    </symbol>
    <symbol id="q" overflow="visible">
      <path d="m19.719-10.359v10.359h-5.4688v-7.9062c0-1.4766-0.039062-2.4922-0.10938-3.0469-0.0625-0.5625-0.17188-0.97656-0.32812-1.25-0.21875-0.35156-0.51172-0.62891-0.875-0.82812-0.36719-0.19531-0.77734-0.29688-1.2344-0.29688-1.1367 0-2.0312 0.44531-2.6875 1.3281-0.64844 0.875-0.96875 2.0859-0.96875 3.625v8.375h-5.4375v-23.641h5.4375v9.125c0.82031-1 1.6914-1.7344 2.6094-2.2031 0.92578-0.46875 1.9453-0.70312 3.0625-0.70312 1.957 0 3.4453 0.60547 4.4688 1.8125 1.0195 1.1992 1.5312 2.9492 1.5312 5.25z"/>
    </symbol>
    <symbol id="p" overflow="visible">
      <path d="m2.8594-22.672h6.5312l8.25 15.547v-15.547h5.5469v22.672h-6.5469l-8.2344-15.562v15.562h-5.5469z"/>
    </symbol>
    <symbol id="o" overflow="visible">
      <path d="m2.8594-22.672h9.7031c2.8828 0 5.0977 0.64062 6.6406 1.9219 1.5508 1.2812 2.3281 3.1055 2.3281 5.4688 0 2.375-0.77734 4.2031-2.3281 5.4844-1.543 1.2812-3.7578 1.9219-6.6406 1.9219h-3.8594v7.875h-5.8438zm5.8438 4.2344v6.3281h3.2344c1.1328 0 2.0078-0.27344 2.625-0.82812 0.625-0.55078 0.9375-1.332 0.9375-2.3438 0-1.0078-0.3125-1.7852-0.9375-2.3281-0.61719-0.55078-1.4922-0.82812-2.625-0.82812z"/>
    </symbol>
    <symbol id="n" overflow="visible">
      <path d="m2.6094-17.016h5.4375v16.719c0 2.2695-0.54688 4.0039-1.6406 5.2031-1.0938 1.207-2.6797 1.8125-4.75 1.8125h-2.6875v-3.5781h0.9375c1.0312 0 1.7383-0.23438 2.125-0.70312 0.38281-0.46094 0.57812-1.3711 0.57812-2.7344zm0-6.625h5.4375v4.4375h-5.4375z"/>
    </symbol>
  </defs>
  <g transform="matrix(0.66554, 0, 0, 0.66554, 33.730705, 113.229736)" style="">
    <path d="M 488.488 149.383 C 486.434 149.098 484.398 148.942 482.371 148.942 C 475.652 148.95 469.223 150.555 463.449 153.368 C 463.449 153.262 463.472 153.149 463.472 153.043 C 463.472 131.656 447.749 113.066 426.007 109.992 C 423.98 109.711 421.957 109.57 419.918 109.57 C 412.968 109.578 406.367 111.305 400.449 114.285 L 419.004 -28.095 C 419.285 -30.067 419.41 -32.114 419.41 -34.11 C 419.41 -55.501 403.687 -74.083 381.945 -77.161 C 379.921 -77.446 377.894 -77.595 375.863 -77.595 C 354.472 -77.595 335.847 -61.892 332.804 -40.087 L 301.695 166.793 L 247.543 -31.617 C 242.336 -51.043 224.762 -63.875 205.512 -63.875 C 201.789 -63.875 197.996 -63.394 194.219 -62.383 C 174.805 -57.144 161.977 -39.598 161.989 -20.36 C 161.989 -16.633 162.473 -12.836 163.489 -9.059 L 199.864 141.781 C 196.169 142.43 192.309 143.5 188.255 145.055 C 186.649 145.664 185.052 146.273 183.388 147.035 C 180.407 148.402 178.403 151.246 178.142 154.52 C 178.142 154.52 178.118 154.844 177.966 155.934 C 176.907 163.477 170.263 199.93 134.568 245.633 L 134.568 245.644 C 133.908 246.492 133.431 247.457 133.111 248.457 C 133.091 248.531 133.048 248.594 133.017 248.676 C 132.736 249.652 132.638 250.672 132.701 251.719 C 132.701 251.801 132.669 251.855 132.677 251.93 C 132.728 252.32 137.314 308.309 155.829 365.07 C 165.126 393.476 177.837 422.14 195.88 444.355 C 213.759 466.468 237.939 482.402 268.239 482.402 L 268.376 482.402 C 268.872 482.39 269.235 482.39 269.485 482.39 L 424.455 482.402 C 479.639 482.39 524.373 437.644 524.373 382.468 L 525.53 198.508 C 525.811 196.441 525.951 194.406 525.94 192.41 C 525.928 171.035 510.206 152.465 488.491 149.379 L 488.488 149.383 Z M 419.883 127.606 L 419.922 127.606 C 421.09 127.606 422.293 127.688 423.508 127.868 C 436.231 129.63 445.442 140.591 445.442 153.056 C 445.442 154.271 445.348 155.462 445.2 156.658 L 442.61 175.076 L 432.376 247.834 L 431.138 256.712 L 429.036 271.657 C 429.013 271.845 428.939 272.013 428.911 272.185 C 426.896 284.619 416.106 293.595 403.841 293.576 C 402.642 293.576 401.435 293.513 400.255 293.353 C 389.099 291.791 380.681 283.197 378.743 272.701 C 378.732 272.619 378.704 272.545 378.681 272.459 C 378.427 271.014 378.302 269.564 378.302 268.064 C 378.302 266.928 378.376 265.775 378.544 264.572 L 384.099 225.068 L 391.111 175.158 L 394.72 149.541 C 395.064 147.096 395.79 144.811 396.747 142.67 C 396.845 142.432 396.907 142.178 397.029 141.955 C 401.204 133.354 410.115 127.607 419.884 127.607 L 419.883 127.606 Z M 228.073 285.026 C 227.979 284.929 227.862 284.807 227.737 284.647 C 227.409 284.225 226.983 283.526 226.569 282.487 C 226.499 282.3 226.433 282.139 226.351 281.932 C 226.343 281.921 226.339 281.882 226.331 281.87 C 225.71 280.01 225.167 277.19 225.104 272.866 C 225.104 272.362 225.143 271.772 225.155 271.237 C 225.175 270.585 225.186 269.936 225.237 269.225 C 225.276 268.636 225.362 267.987 225.417 267.358 C 225.499 266.518 225.585 265.686 225.702 264.796 C 225.796 264.124 225.921 263.37 226.038 262.655 C 226.194 261.702 226.366 260.721 226.565 259.686 C 226.722 258.897 226.893 258.089 227.077 257.253 C 227.175 256.831 227.296 256.35 227.393 255.917 L 232.87 286.417 L 228.073 285.026 Z M 506.323 382.479 C 506.261 427.694 469.655 464.288 424.448 464.381 L 269.608 464.381 C 269.147 464.381 268.698 464.393 268.378 464.393 C 244.573 464.311 225.882 452.495 209.87 432.991 C 186.003 403.823 170.714 357.893 161.991 319.501 C 157.592 300.286 154.749 282.97 153.018 270.462 C 151.971 262.95 151.338 257.251 150.991 253.9 C 151.569 253.134 152.085 252.4 152.659 251.642 C 153.842 250.068 155.01 248.482 156.131 246.927 C 156.92 245.818 157.674 244.744 158.432 243.662 C 159.514 242.099 160.604 240.552 161.631 239.013 C 162.323 237.966 162.987 236.935 163.659 235.904 C 164.659 234.369 165.663 232.83 166.6 231.318 C 167.209 230.334 167.784 229.369 168.366 228.388 C 169.28 226.865 170.206 225.353 171.065 223.853 C 171.592 222.939 172.092 222.041 172.596 221.134 C 173.444 219.615 174.284 218.115 175.065 216.65 C 175.514 215.791 175.928 214.99 176.358 214.162 C 177.131 212.685 177.901 211.189 178.612 209.751 C 179.002 208.986 179.338 208.24 179.706 207.486 C 180.401 206.029 181.104 204.568 181.745 203.169 C 182.057 202.486 182.335 201.818 182.647 201.142 C 183.276 199.712 183.909 198.287 184.483 196.912 C 184.737 196.302 184.963 195.728 185.206 195.13 C 185.772 193.732 186.342 192.341 186.854 191.013 C 187.053 190.498 187.229 189.998 187.413 189.49 C 187.924 188.134 188.428 186.779 188.873 185.49 C 189.018 185.068 189.147 184.673 189.295 184.259 C 189.745 182.939 190.19 181.634 190.584 180.388 C 190.702 180.029 190.792 179.705 190.901 179.349 C 191.292 178.099 191.674 176.861 192.01 175.697 C 192.092 175.423 192.147 175.181 192.229 174.912 C 192.565 173.728 192.881 172.56 193.163 171.47 C 193.233 171.197 193.292 170.959 193.35 170.693 C 193.612 169.662 193.866 168.638 194.077 167.705 C 194.174 167.287 194.245 166.931 194.331 166.541 C 194.487 165.826 194.655 165.091 194.784 164.451 C 194.991 163.431 195.163 162.498 195.319 161.658 C 198.581 160.443 201.405 159.759 203.87 159.4 C 203.94 159.392 204.014 159.388 204.081 159.376 C 205.374 159.197 206.608 159.08 207.682 159.08 C 209.792 159.08 211.51 159.376 212.995 159.853 C 215.311 160.619 217.171 161.826 218.858 163.548 C 219.569 164.271 220.253 165.06 220.917 165.982 C 222.733 168.404 224.128 171.607 225.241 175.072 C 227.991 183.669 228.831 194.08 228.702 199.576 C 228.702 200.498 228.69 201.263 228.678 201.865 L 228.678 201.888 C 228.198 202.877 227.799 203.779 227.346 204.74 C 226.378 206.798 225.397 208.873 224.495 210.83 C 222.627 214.962 220.991 218.83 219.459 222.584 C 210.268 245.209 207.088 261.182 207.057 272.936 C 207.015 275.025 207.163 276.916 207.35 278.752 C 208.733 292.354 215.843 299.147 219.377 301.119 C 219.956 301.435 220.428 301.615 220.776 301.705 L 221.069 301.803 L 221.584 301.99 L 238.783 307.072 L 241.776 307.963 C 242.576 308.213 243.401 308.318 244.221 308.33 C 244.264 308.33 244.315 308.342 244.35 308.342 C 244.51 308.342 244.662 308.279 244.823 308.267 C 245.139 308.248 245.455 308.225 245.764 308.174 C 248.526 308.236 261.487 308.795 275.83 313.271 C 292.127 318.369 309.342 328.072 317.791 346.474 C 319.31 349.783 322.576 351.74 325.99 351.74 C 327.248 351.74 328.521 351.474 329.748 350.9 C 334.283 348.81 336.244 343.463 334.158 338.939 C 322.596 313.974 299.974 301.9 281.189 296.06 C 269.244 292.353 258.501 290.982 251.908 290.459 L 246.408 259.807 L 244.014 246.455 L 238.412 224.037 C 239.228 222.134 239.994 220.29 240.912 218.267 C 242.338 215.142 243.842 211.908 245.486 208.54 L 245.506 208.49 C 245.576 208.361 245.642 208.216 245.713 208.072 C 246.236 206.982 246.521 205.9 246.607 204.705 C 246.615 204.576 246.682 203.486 246.713 201.642 C 246.725 201.033 246.732 200.333 246.732 199.572 C 246.701 197.83 246.635 195.638 246.514 193.267 C 246.459 192.185 246.389 191.107 246.303 189.927 C 246.205 188.677 246.092 187.376 245.935 186.033 C 244.885 176.619 242.291 165.232 235.638 155.549 C 234.439 153.846 233.002 152.232 231.451 150.697 C 227.998 147.264 223.74 144.377 218.607 142.721 L 180.951 -13.489 C 180.303 -15.946 180.01 -18.142 180.01 -20.333 C 180.021 -31.571 187.533 -41.911 198.92 -44.942 C 201.123 -45.552 203.326 -45.821 205.509 -45.821 C 216.759 -45.821 227.099 -38.309 230.138 -26.907 L 289.329 189.983 L 293.38 204.835 C 293.634 205.768 294.06 206.597 294.564 207.366 C 296.517 210.347 300.095 211.952 303.728 211.28 C 303.857 211.304 303.978 211.362 304.107 211.386 C 309.036 212.112 313.622 208.721 314.369 203.807 L 315.17 198.444 L 318.341 177.319 L 350.63 -37.501 C 352.404 -50.337 363.372 -59.548 375.857 -59.548 C 377.025 -59.548 378.217 -59.462 379.428 -59.298 C 392.166 -57.513 401.369 -46.56 401.369 -34.091 C 401.357 -32.884 401.283 -31.677 401.115 -30.493 L 360.681 262.057 C 360.4 264.061 360.263 266.084 360.275 268.08 C 360.263 270.596 360.482 273.115 360.907 275.561 C 364.017 293.698 378.548 308.514 397.735 311.221 C 399.782 311.502 401.837 311.639 403.825 311.639 C 422.274 311.639 438.606 299.897 444.731 282.729 C 451.016 288.541 459.012 292.615 468.126 293.905 C 470.099 294.202 472.064 294.323 473.962 294.323 L 474.228 294.323 C 486.79 294.323 498.263 288.815 506.298 279.948 L 506.298 382.478 L 506.323 382.479 Z M 507.647 196.019 L 506.128 206.82 L 505.265 212.972 L 501.046 242.952 L 499.44 254.378 C 499.233 255.96 498.843 257.503 498.315 259.058 C 494.839 269.277 485.069 276.331 474.249 276.304 C 473.035 276.304 471.835 276.234 470.652 276.062 C 459.824 274.55 451.625 266.386 449.398 256.324 C 449.335 256.031 449.23 255.765 449.179 255.476 C 449.155 255.379 449.116 255.301 449.105 255.211 C 448.823 253.719 448.714 252.23 448.714 250.738 C 448.714 249.625 448.788 248.484 448.956 247.277 L 454.222 209.882 L 457.171 188.902 C 457.39 187.285 457.792 185.66 458.339 184.125 C 458.655 183.18 459.054 182.254 459.495 181.336 C 459.675 180.976 459.894 180.664 460.101 180.32 C 464.464 172.269 472.937 166.968 482.296 166.968 L 482.378 166.968 C 483.546 166.968 484.749 167.042 485.964 167.218 L 485.975 167.218 C 498.686 168.999 507.901 179.948 507.901 192.406 C 507.89 193.621 507.804 194.824 507.647 196.019 L 507.647 196.019 Z"/>
    <use transform="matrix(1, 0, 0, 1, 85.98046875, 653.33203125)" xlink:href="#u"/>
    <use transform="matrix(1, 0, 0, 1, 108.8125, 653.33203125)" xlink:href="#d"/>
    <use transform="matrix(1, 0, 0, 1, 124.15625, 653.33203125)" xlink:href="#c"/>
    <use transform="matrix(1, 0, 0, 1, 145.2578125, 653.33203125)" xlink:href="#i"/>
    <use transform="matrix(1, 0, 0, 1, 166.25, 653.33203125)" xlink:href="#b"/>
    <use transform="matrix(1, 0, 0, 1, 181.12109375, 653.33203125)" xlink:href="#c"/>
    <use transform="matrix(1, 0, 0, 1, 202.22265625, 653.33203125)" xlink:href="#h"/>
    <use transform="matrix(1, 0, 0, 1, 235.32421875, 653.33203125)" xlink:href="#g"/>
    <use transform="matrix(1, 0, 0, 1, 257.59375, 653.33203125)" xlink:href="#m"/>
    <use transform="matrix(1, 0, 0, 1, 288.70703125, 653.33203125)" xlink:href="#l"/>
    <use transform="matrix(1, 0, 0, 1, 311.11328125, 653.33203125)" xlink:href="#b"/>
    <use transform="matrix(1, 0, 0, 1, 325.984375, 653.33203125)" xlink:href="#k"/>
    <use transform="matrix(1, 0, 0, 1, 348.1328125, 653.33203125)" xlink:href="#h"/>
    <use transform="matrix(1, 0, 0, 1, 370.40234375, 653.33203125)" xlink:href="#f"/>
    <use transform="matrix(1, 0, 0, 1, 381.06640625, 653.33203125)" xlink:href="#a"/>
    <use transform="matrix(1, 0, 0, 1, 413.26953125, 653.33203125)" xlink:href="#t"/>
    <use transform="matrix(1, 0, 0, 1, 434.5234375, 653.33203125)" xlink:href="#f"/>
    <use transform="matrix(1, 0, 0, 1, 445.1875, 653.33203125)" xlink:href="#g"/>
    <use transform="matrix(1, 0, 0, 1, 467.45703125, 653.33203125)" xlink:href="#a"/>
    <use transform="matrix(1, 0, 0, 1, 488.83203125, 653.33203125)" xlink:href="#j"/>
    <use transform="matrix(1, 0, 0, 1, 510.98046875, 653.33203125)" xlink:href="#i"/>
    <use transform="matrix(1, 0, 0, 1, 531.97265625, 653.33203125)" xlink:href="#e"/>
    <use transform="matrix(1, 0, 0, 1, 550.4140625, 653.33203125)" xlink:href="#e"/>
    <use transform="matrix(1, 0, 0, 1, 568.85546875, 653.33203125)" xlink:href="#f"/>
    <use transform="matrix(1, 0, 0, 1, 85.98046875, 684.4453125)" xlink:href="#s"/>
    <use transform="matrix(1, 0, 0, 1, 99.515625, 684.4453125)" xlink:href="#d"/>
    <use transform="matrix(1, 0, 0, 1, 114.859375, 684.4453125)" xlink:href="#a"/>
    <use transform="matrix(1, 0, 0, 1, 136.234375, 684.4453125)" xlink:href="#r"/>
    <use transform="matrix(1, 0, 0, 1, 179.48046875, 684.4453125)" xlink:href="#b"/>
    <use transform="matrix(1, 0, 0, 1, 194.35546875, 684.4453125)" xlink:href="#q"/>
    <use transform="matrix(1, 0, 0, 1, 216.50390625, 684.4453125)" xlink:href="#c"/>
    <use transform="matrix(1, 0, 0, 1, 248.43359375, 684.4453125)" xlink:href="#p"/>
    <use transform="matrix(1, 0, 0, 1, 274.47265625, 684.4453125)" xlink:href="#a"/>
    <use transform="matrix(1, 0, 0, 1, 295.84375, 684.4453125)" xlink:href="#k"/>
    <use transform="matrix(1, 0, 0, 1, 317.9921875, 684.4453125)" xlink:href="#j"/>
    <use transform="matrix(1, 0, 0, 1, 350.97265625, 684.4453125)" xlink:href="#o"/>
    <use transform="matrix(1, 0, 0, 1, 373.7734375, 684.4453125)" xlink:href="#d"/>
    <use transform="matrix(1, 0, 0, 1, 389.1171875, 684.4453125)" xlink:href="#a"/>
    <use transform="matrix(1, 0, 0, 1, 410.4921875, 684.4453125)" xlink:href="#n"/>
    <use transform="matrix(1, 0, 0, 1, 421.15625, 684.4453125)" xlink:href="#c"/>
    <use transform="matrix(1, 0, 0, 1, 442.25390625, 684.4453125)" xlink:href="#e"/>
    <use transform="matrix(1, 0, 0, 1, 460.69921875, 684.4453125)" xlink:href="#b"/>
  </g>
</svg>